<svg xmlns="http://www.w3.org/2000/svg" viewBox="0 0 1400 1100" role="img">
  <defs>
    <linearGradient id="g" x1="0" y1="0" x2="1" y2="1">
      <stop offset="0" stop-color="#F2E7D9"/>
      <stop offset=".52" stop-color="#C9B599"/>
      <stop offset="1" stop-color="#7B6A58"/>
    </linearGradient>
    <filter id="t">
      <feTurbulence baseFrequency=".02 .18" numOctaves="4" seed="4"/>
      <feDisplacementMap in="SourceGraphic" scale="18"/>
    </filter>
  </defs>
  <rect width="1400" height="1100" fill="url(#g)"/>
  <g filter="url(#t)" fill="none" stroke-linecap="round">
    <path d="M-20 180C260 95 394 300 620 210c290-114 468-92 805-52" stroke="#FFF9EF" stroke-width="18" opacity=".42"/>
    <path d="M-90 430c258-90 408 80 640-8 267-101 482-64 940-16" stroke="#6B5C4A" stroke-width="10" opacity=".18"/>
    <path d="M-30 760c345-126 520 118 800 12 247-94 425-102 710-22" stroke="#ffffff" stroke-width="14" opacity=".3"/>
    <path d="M60 960c286-88 438 24 640-54 260-100 510-38 735-10" stroke="#4A4138" stroke-width="9" opacity=".18"/>
  </g>
</svg>
