<svg xmlns="http://www.w3.org/2000/svg" viewBox="0 0 1800 1100" role="img">
  <defs>
    <linearGradient id="g" x1="0" y1="0" x2="1" y2="1">
      <stop offset="0" stop-color="#F4E7D4"/>
      <stop offset=".55" stop-color="#C7A982"/>
      <stop offset="1" stop-color="#8A755F"/>
    </linearGradient>
    <filter id="noise">
      <feTurbulence baseFrequency=".018 .11" numOctaves="5" seed="21"/>
      <feColorMatrix values=".55 0 0 0 0 .45 0 0 0 0 .35 0 0 0 0 0 0 0 .16 0"/>
      <feBlend in="SourceGraphic" mode="multiply"/>
    </filter>
  </defs>
  <rect width="1800" height="1100" fill="url(#g)"/>
  <g filter="url(#noise)" fill="none" stroke-linecap="round">
    <path d="M0 175c260 18 360-78 610-38 300 48 560 13 1190-56" stroke="#FFF7EA" stroke-width="28" opacity=".36"/>
    <path d="M0 402c280-42 456 68 720 24 342-56 590-82 1080 8" stroke="#6B5C4A" stroke-width="12" opacity=".16"/>
    <path d="M0 720c350 60 560-90 930-48 300 34 560 78 870-3" stroke="#FFF2DD" stroke-width="20" opacity=".28"/>
    <path d="M0 945c260-44 420 36 740-14 320-50 628-28 1060 40" stroke="#5E4F42" stroke-width="10" opacity=".18"/>
  </g>
</svg>
