<svg xmlns="http://www.w3.org/2000/svg" viewBox="0 0 900 1125" role="img">
  <defs>
    <linearGradient id="slate" x1="0" y1="0" x2="1" y2="1">
      <stop stop-color="#A7B2B2"/>
      <stop offset=".5" stop-color="#596160"/>
      <stop offset="1" stop-color="#1B1D1C"/>
    </linearGradient>
    <filter id="fold">
      <feTurbulence baseFrequency=".012 .06" numOctaves="5" seed="83"/>
      <feDisplacementMap in="SourceGraphic" scale="16"/>
    </filter>
  </defs>
  <rect width="900" height="1125" fill="#F5F0E8"/>
  <rect x="65" y="80" width="500" height="720" fill="url(#slate)"/>
  <rect x="565" y="80" width="270" height="720" fill="#D7CCBF"/>
  <g filter="url(#fold)" fill="none" stroke-linecap="round">
    <path d="M40 190c160 55 260-35 430 28 130 48 220 26 370 70" stroke="#D9E2DD" stroke-opacity=".26" stroke-width="10"/>
    <path d="M45 430c190 50 275-60 450 10 145 58 215 40 350 90" stroke="#222625" stroke-opacity=".35" stroke-width="14"/>
    <path d="M40 650c170 35 300-65 470 4 150 60 225 30 340 70" stroke="#CAD0CA" stroke-opacity=".22" stroke-width="8"/>
  </g>
  <rect y="800" width="900" height="325" fill="#E7DDD0"/>
  <rect x="600" y="865" width="120" height="180" fill="#6B5C4A" opacity=".34"/>
  <rect x="185" y="875" width="300" height="74" rx="8" fill="#ffffff" opacity=".92"/>
</svg>
